<svg id="svg" version="1.1" xmlns="http://www.w3.org/2000/svg" style="display: block;" viewBox="0 0 500 500"><path d="M0 0 C165 0 330 0 500 0 C500 165 500 330 500 500 C335 500 170 500 0 500 C0 335 0 170 0 0 Z " transform="translate(0,0)" style="fill: #FEFEFE;"/><path d="M0 0 C0.66 0.33 1.32 0.66 2 1 C2.37036176 3.85359129 2.61357095 6.62844794 2.78125 9.49609375 C2.84026489 10.35880386 2.89927979 11.22151398 2.96008301 12.11036682 C3.14910856 14.88556161 3.32560484 17.6613501 3.5 20.4375 C3.67537513 23.18142017 3.85369355 25.92502184 4.03991699 28.66822815 C4.15561243 30.37640419 4.26515772 32.08501268 4.36730957 33.79405212 C4.91429793 41.94781631 5.84746474 49.8274391 10 57 C17.2101623 50.46579042 22.45252547 42.01669382 27.67578125 33.875 C28.98848221 32.01630838 30.27287391 30.48171675 32 29 C32.66 29 33.32 29 34 29 C33.22066834 36.18224974 31.87912839 43.22378009 30.5 50.3125 C30.27441406 51.49134766 30.04882812 52.67019531 29.81640625 53.88476562 C28.13053784 62.60838648 28.13053784 62.60838648 27 66 C28.7761553 65.43307776 30.54581206 64.84577025 32.3125 64.25 C33.29863281 63.92515625 34.28476563 63.6003125 35.30078125 63.265625 C38.24139766 61.88681209 39.2049396 60.62907308 41 58 C41.66 58 42.32 58 43 58 C43.226875 57.46375 43.45375 56.9275 43.6875 56.375 C45.45570089 53.17539839 47.53670203 50.70962777 50 48 C50.66 48 51.32 48 52 48 C52.2371875 47.45859375 52.474375 46.9171875 52.71875 46.359375 C54.34347757 43.36749863 56.3501877 40.88840601 58.5 38.25 C59.2940625 37.26515625 60.088125 36.2803125 60.90625 35.265625 C61.5971875 34.51796875 62.288125 33.7703125 63 33 C63.66 33 64.32 33 65 33 C65.34998047 32.17048828 65.34998047 32.17048828 65.70703125 31.32421875 C67.33635535 28.39537331 69.3894459 26.25132312 71.6875 23.8125 C75.62128126 19.57699601 79.22240744 15.25241671 82.625 10.58203125 C83.07875 10.05996094 83.5325 9.53789063 84 9 C84.66 9 85.32 9 86 9 C86.66 7.35 87.32 5.7 88 4 C88.99 4.33 89.98 4.66 91 5 C90.52820313 5.90878906 90.52820313 5.90878906 90.046875 6.8359375 C87.88931663 11.06007286 85.83592324 15.26141597 84.125 19.6875 C82.5143631 23.8429432 80.67224996 27.85700798 78.75 31.875 C75.46354807 38.76796636 72.64111749 45.80894264 69.85400391 52.91601562 C67.79514801 58.12733668 65.53755682 63.14025195 62.96484375 68.12109375 C59.7233237 74.43352754 59.77725087 80.04527714 60 87 C60.99 87 61.98 87 63 87 C63 86.34 63 85.68 63 85 C64.38251358 84.02212454 65.77391171 83.05442612 67.20703125 82.15234375 C69.11624675 80.92528803 70.92596252 79.59986422 72.75 78.25 C76 76 76 76 78 76 C78 75.34 78 74.68 78 74 C81.49655387 71.3979134 84.89160936 69.45002023 89 68 C89 67.34 89 66.68 89 66 C89.99 66 90.98 66 92 66 C91.45509485 69.62643772 90.62495645 71.88595745 88.4375 74.8125 C85.42125985 79.14972124 82.9923549 83.66406413 80.625 88.375 C80.26720459 89.07729736 79.90940918 89.77959473 79.54077148 90.50317383 C77.52569196 94.55481686 77.52569196 94.55481686 77 99 C83.62256533 99.38911386 88.57302477 98.12434691 94.75 95.8125 C95.63034912 95.49369873 96.51069824 95.17489746 97.41772461 94.84643555 C103.1169168 92.76233613 108.73809317 90.52238775 114.31640625 88.1328125 C117.18954066 86.91999011 120.08074088 85.78461972 123 84.6875 C123.86625 84.36136719 124.7325 84.03523438 125.625 83.69921875 C128 83 128 83 132 83 C130.86913662 86.39259014 129.79067537 87.33037102 127.125 89.625 C126.42632812 90.23601562 125.72765625 90.84703125 125.0078125 91.4765625 C123 93 123 93 120 94 C120 94.66 120 95.32 120 96 C118.35546875 97.69140625 118.35546875 97.69140625 116.1875 99.5625 C115.47980469 100.18253906 114.77210938 100.80257812 114.04296875 101.44140625 C112 103 112 103 109 104 C109 104.66 109 105.32 109 106 C103.52380952 111 103.52380952 111 101 111 C100.505 112.485 100.505 112.485 100 114 C98.22265625 115.82421875 98.22265625 115.82421875 96.0625 117.6875 C95.35222656 118.31011719 94.64195312 118.93273437 93.91015625 119.57421875 C92 121 92 121 90 121 C90 121.66 90 122.32 90 123 C87.49992545 125.51868553 84.71710541 127.71966294 82 130 C80.700625 131.2065625 80.700625 131.2065625 79.375 132.4375 C76.21562225 134.516038 74.74287905 134.54883563 71 134 C68.55567972 132.27488706 66.63116323 130.14512021 64.625 127.9375 C63.48099339 126.73523831 62.33516845 125.53470413 61.1875 124.3359375 C60.63964844 123.75682617 60.09179688 123.17771484 59.52734375 122.58105469 C56.54583161 119.49469398 53.27800421 116.76120175 50 114 C49.48953125 113.53851563 48.9790625 113.07703125 48.453125 112.6015625 C33.84740064 99.51425502 17.18761669 90.907995 -1 84 C-2.81410982 83.2748477 -4.62682378 82.54618379 -6.4375 81.8125 C-9.43908563 80.60485036 -12.45557019 79.46968764 -15.5 78.375 C-19 77 -19 77 -21 75 C-21.30078125 73.1171875 -21.30078125 73.1171875 -21.3125 70.875 C-21.32925781 70.15054688 -21.34601563 69.42609375 -21.36328125 68.6796875 C-21 66 -21 66 -19.70996094 62.64257812 C-17.5090738 56.89000862 -15.93002287 50.96738933 -14.27734375 45.0390625 C-13.56723163 42.52208623 -12.85693993 40.00516061 -12.14648438 37.48828125 C-11.03506981 33.53883386 -9.92701143 29.58845651 -8.82202148 25.63720703 C-7.75152875 21.81087008 -6.67062361 17.9875067 -5.58984375 14.1640625 C-5.09447365 12.37979355 -5.09447365 12.37979355 -4.58909607 10.55947876 C-4.12334923 8.91669449 -4.12334923 8.91669449 -3.64819336 7.24072266 C-3.24207069 5.79132797 -3.24207069 5.79132797 -2.82774353 4.31265259 C-2 2 -2 2 0 0 Z " transform="translate(214,111)" style="fill: #8E55FE;"/><path d="M0 0 C3.21527259 0.03722457 4.62226319 0.07598411 6.95703125 2.34375 C10.1875 7.48270893 10.1875 7.48270893 10.1875 10.625 C12.74609692 9.34570154 13.04898734 8.18228932 14.25 5.625 C16.10275424 1.70974576 16.10275424 1.70974576 17.1875 0.625 C18.85179051 0.52676063 20.52031931 0.49526369 22.1875 0.5 C23.54875 0.49613281 23.54875 0.49613281 24.9375 0.4921875 C27.1875 0.625 27.1875 0.625 28.1875 1.625 C28.27593793 4.07330426 28.30278752 6.49320599 28.28515625 8.94140625 C28.2837413 9.67246078 28.28232635 10.40351532 28.28086853 11.15672302 C28.27525408 13.50035632 28.26269922 15.84389539 28.25 18.1875 C28.24498686 19.77278508 28.24042363 21.35807166 28.23632812 22.94335938 C28.22527997 26.8372761 28.20800572 30.73112205 28.1875 34.625 C25.66274538 35.88737731 23.87549534 35.72356404 21.0625 35.6875 C19.45375 35.666875 17.845 35.64625 16.1875 35.625 C15.8575 31.005 15.5275 26.385 15.1875 21.625 C14.5275 22.285 13.8675 22.945 13.1875 23.625 C10.125 23.8125 10.125 23.8125 7.1875 23.625 C6.8575 23.295 6.5275 22.965 6.1875 22.625 C6.13851562 23.39585937 6.08953125 24.16671875 6.0390625 24.9609375 C5.96429688 25.96382813 5.88953125 26.96671875 5.8125 28 C5.74289063 28.99773437 5.67328125 29.99546875 5.6015625 31.0234375 C5.1875 33.625 5.1875 33.625 3.1875 35.625 C1.05859375 35.85546875 1.05859375 35.85546875 -1.375 35.8125 C-2.18066406 35.80605469 -2.98632812 35.79960937 -3.81640625 35.79296875 C-5.8125 35.625 -5.8125 35.625 -6.8125 34.625 C-6.92567284 32.27271681 -6.97666537 29.95088052 -6.98046875 27.59765625 C-6.98379715 26.89354111 -6.98712555 26.18942596 -6.99055481 25.463974 C-6.99562655 23.97183894 -6.99796306 22.4796925 -6.99780273 20.98754883 C-6.99998759 18.70049393 -7.01813549 16.41392247 -7.03710938 14.12695312 C-7.04004354 12.67968916 -7.04202818 11.23242289 -7.04296875 9.78515625 C-7.05015427 9.09865494 -7.05733978 8.41215363 -7.06474304 7.70484924 C-7.03677537 1.91169538 -5.77811372 0.32918789 0 0 Z " transform="translate(176.8125,249.375)" style="fill: #6D19ED;"/><path d="M0 0 C3.21527259 0.03722457 4.62226319 0.07598411 6.95703125 2.34375 C10.1875 7.48270893 10.1875 7.48270893 10.1875 10.625 C12.74609692 9.34570154 13.04898734 8.18228932 14.25 5.625 C16.10275424 1.70974576 16.10275424 1.70974576 17.1875 0.625 C18.85179051 0.52676063 20.52031931 0.49526369 22.1875 0.5 C23.54875 0.49613281 23.54875 0.49613281 24.9375 0.4921875 C27.1875 0.625 27.1875 0.625 28.1875 1.625 C28.27593793 4.07330426 28.30278752 6.49320599 28.28515625 8.94140625 C28.2837413 9.67246078 28.28232635 10.40351532 28.28086853 11.15672302 C28.27525408 13.50035632 28.26269922 15.84389539 28.25 18.1875 C28.24498686 19.77278508 28.24042363 21.35807166 28.23632812 22.94335938 C28.22527997 26.8372761 28.20800572 30.73112205 28.1875 34.625 C25.66274538 35.88737731 23.87549534 35.72356404 21.0625 35.6875 C19.45375 35.666875 17.845 35.64625 16.1875 35.625 C15.8575 31.005 15.5275 26.385 15.1875 21.625 C14.5275 22.285 13.8675 22.945 13.1875 23.625 C10.125 23.8125 10.125 23.8125 7.1875 23.625 C6.8575 23.295 6.5275 22.965 6.1875 22.625 C6.13851562 23.39585937 6.08953125 24.16671875 6.0390625 24.9609375 C5.96429688 25.96382813 5.88953125 26.96671875 5.8125 28 C5.74289063 28.99773437 5.67328125 29.99546875 5.6015625 31.0234375 C5.1875 33.625 5.1875 33.625 3.1875 35.625 C1.05859375 35.85546875 1.05859375 35.85546875 -1.375 35.8125 C-2.18066406 35.80605469 -2.98632812 35.79960937 -3.81640625 35.79296875 C-5.8125 35.625 -5.8125 35.625 -6.8125 34.625 C-6.92567284 32.27271681 -6.97666537 29.95088052 -6.98046875 27.59765625 C-6.98379715 26.89354111 -6.98712555 26.18942596 -6.99055481 25.463974 C-6.99562655 23.97183894 -6.99796306 22.4796925 -6.99780273 20.98754883 C-6.99998759 18.70049393 -7.01813549 16.41392247 -7.03710938 14.12695312 C-7.04004354 12.67968916 -7.04202818 11.23242289 -7.04296875 9.78515625 C-7.05015427 9.09865494 -7.05733978 8.41215363 -7.06474304 7.70484924 C-7.03677537 1.91169538 -5.77811372 0.32918789 0 0 Z " transform="translate(136.8125,249.375)" style="fill: #6D19ED;"/><path d="M0 0 C0.95519531 -0.02900391 1.91039062 -0.05800781 2.89453125 -0.08789062 C7.2350029 -0.12712994 10.02615717 -0.07588159 13.90234375 2.00390625 C16.12847414 4.78539264 16.29361045 6.04962117 16.0625 9.5625 C15.99482422 10.90054687 15.99482422 10.90054687 15.92578125 12.265625 C15.86777344 12.94109375 15.80976563 13.6165625 15.75 14.3125 C17.07 14.9725 18.39 15.6325 19.75 16.3125 C19.80394705 18.91694348 19.84364469 21.52026998 19.875 24.125 C19.89175781 24.86298828 19.90851563 25.60097656 19.92578125 26.36132812 C19.96074628 30.22496426 19.94397555 32.02153668 17.75 35.3125 C15.40234375 35.640625 15.40234375 35.640625 12.6875 35.5625 C11.78902344 35.54703125 10.89054687 35.5315625 9.96484375 35.515625 C7.75 35.3125 7.75 35.3125 6.75 34.3125 C6.67794489 32.62641034 6.66613932 30.93749341 6.6875 29.25 C6.69652344 28.33089844 6.70554687 27.41179687 6.71484375 26.46484375 C6.72644531 25.75457031 6.73804688 25.04429687 6.75 24.3125 C5.1 24.3125 3.45 24.3125 1.75 24.3125 C1.61722656 25.02277344 1.48445313 25.73304688 1.34765625 26.46484375 C1.08275391 27.84349609 1.08275391 27.84349609 0.8125 29.25 C0.63847656 30.16652344 0.46445312 31.08304687 0.28515625 32.02734375 C-0.25 34.3125 -0.25 34.3125 -1.25 35.3125 C-2.93608966 35.38455511 -4.62500659 35.39636068 -6.3125 35.375 C-7.23160156 35.36597656 -8.15070313 35.35695313 -9.09765625 35.34765625 C-9.80792969 35.33605469 -10.51820313 35.32445312 -11.25 35.3125 C-11.2746519 30.48869198 -11.29283693 25.66492033 -11.30493164 20.84106445 C-11.30997174 19.19880536 -11.31680378 17.55655077 -11.32543945 15.91430664 C-11.33751926 13.55874521 -11.34323139 11.20324291 -11.34765625 8.84765625 C-11.35281754 8.10910904 -11.35797882 7.37056183 -11.36329651 6.6096344 C-11.3634925 4.84351912 -11.31194719 3.07752854 -11.25 1.3125 C-8.89232343 -1.04517657 -3.16251856 0.03149919 0 0 Z " transform="translate(416.25,249.6875)" style="fill: #6B19ED;"/><path d="M0 0 C0.95519531 -0.02900391 1.91039062 -0.05800781 2.89453125 -0.08789062 C7.2350029 -0.12712994 10.02615717 -0.07588159 13.90234375 2.00390625 C16.12847414 4.78539264 16.29361045 6.04962117 16.0625 9.5625 C15.99482422 10.90054687 15.99482422 10.90054687 15.92578125 12.265625 C15.86777344 12.94109375 15.80976563 13.6165625 15.75 14.3125 C17.07 14.9725 18.39 15.6325 19.75 16.3125 C19.80394705 18.91694348 19.84364469 21.52026998 19.875 24.125 C19.89175781 24.86298828 19.90851563 25.60097656 19.92578125 26.36132812 C19.96074628 30.22496426 19.94397555 32.02153668 17.75 35.3125 C15.40234375 35.640625 15.40234375 35.640625 12.6875 35.5625 C11.78902344 35.54703125 10.89054687 35.5315625 9.96484375 35.515625 C7.75 35.3125 7.75 35.3125 6.75 34.3125 C6.67794489 32.62641034 6.66613932 30.93749341 6.6875 29.25 C6.69652344 28.33089844 6.70554687 27.41179687 6.71484375 26.46484375 C6.72644531 25.75457031 6.73804688 25.04429687 6.75 24.3125 C5.1 24.3125 3.45 24.3125 1.75 24.3125 C1.61722656 25.02277344 1.48445313 25.73304688 1.34765625 26.46484375 C1.08275391 27.84349609 1.08275391 27.84349609 0.8125 29.25 C0.63847656 30.16652344 0.46445312 31.08304687 0.28515625 32.02734375 C-0.25 34.3125 -0.25 34.3125 -1.25 35.3125 C-2.93608966 35.38455511 -4.62500659 35.39636068 -6.3125 35.375 C-7.23160156 35.36597656 -8.15070313 35.35695313 -9.09765625 35.34765625 C-9.80792969 35.33605469 -10.51820313 35.32445312 -11.25 35.3125 C-11.2746519 30.48869198 -11.29283693 25.66492033 -11.30493164 20.84106445 C-11.30997174 19.19880536 -11.31680378 17.55655077 -11.32543945 15.91430664 C-11.33751926 13.55874521 -11.34323139 11.20324291 -11.34765625 8.84765625 C-11.35281754 8.10910904 -11.35797882 7.37056183 -11.36329651 6.6096344 C-11.3634925 4.84351912 -11.31194719 3.07752854 -11.25 1.3125 C-8.89232343 -1.04517657 -3.16251856 0.03149919 0 0 Z " transform="translate(256.25,249.6875)" style="fill: #6B19ED;"/><path d="M0 0 C0.95519531 -0.02900391 1.91039062 -0.05800781 2.89453125 -0.08789062 C7.23617349 -0.12714052 10.02398119 -0.07843321 13.8984375 2.0078125 C16.11131187 4.76223419 16.32076806 6.01223741 16.125 9.5 C16.09148437 10.38042969 16.05796875 11.26085937 16.0234375 12.16796875 C15.75 14.3125 15.75 14.3125 14.75 15.3125 C15.40355469 15.81394531 16.05710937 16.31539063 16.73046875 16.83203125 C19.42777898 20.14497514 19.23689185 22.92698147 19.0625 27 C19.05283203 27.68900391 19.04316406 28.37800781 19.03320312 29.08789062 C18.91886475 34.14363525 18.91886475 34.14363525 17.75 35.3125 C16.08570949 35.41073937 14.41718069 35.44223631 12.75 35.4375 C11.38875 35.44136719 11.38875 35.44136719 10 35.4453125 C7.75 35.3125 7.75 35.3125 6.75 34.3125 C6.67794489 32.62641034 6.66613932 30.93749341 6.6875 29.25 C6.69652344 28.33089844 6.70554687 27.41179687 6.71484375 26.46484375 C6.72644531 25.75457031 6.73804688 25.04429687 6.75 24.3125 C5.1 24.3125 3.45 24.3125 1.75 24.3125 C1.811875 25.385 1.87375 26.4575 1.9375 27.5625 C1.73860002 31.54049968 1.51367501 32.59647456 -1.25 35.3125 C-3.73046875 35.703125 -3.73046875 35.703125 -6.4375 35.5625 C-7.33855469 35.52640625 -8.23960937 35.4903125 -9.16796875 35.453125 C-9.85503906 35.40671875 -10.54210937 35.3603125 -11.25 35.3125 C-11.2746519 30.48869198 -11.29283693 25.66492033 -11.30493164 20.84106445 C-11.30997174 19.19880536 -11.31680378 17.55655077 -11.32543945 15.91430664 C-11.33751926 13.55874521 -11.34323139 11.20324291 -11.34765625 8.84765625 C-11.35281754 8.10910904 -11.35797882 7.37056183 -11.36329651 6.6096344 C-11.3634925 4.84351912 -11.31194719 3.07752854 -11.25 1.3125 C-8.89232343 -1.04517657 -3.16251856 0.03149919 0 0 Z " transform="translate(381.25,249.6875)" style="fill: #6B1BED;"/><path d="M0 0 C1.48831242 0.00667405 2.97660807 0.01863442 4.46484375 0.03515625 C5.22345703 0.03966797 5.98207031 0.04417969 6.76367188 0.04882812 C8.64326246 0.06064945 10.52281274 0.07858547 12.40234375 0.09765625 C13.77576825 2.74978633 15.09895763 5.41146622 16.40234375 8.09765625 C16.97984375 9.23203125 17.55734375 10.36640625 18.15234375 11.53515625 C19.76444371 15.91337307 19.68991038 20.36238076 19.71484375 24.97265625 C19.72032227 25.73505615 19.72580078 26.49745605 19.73144531 27.28295898 C19.65930733 32.84069267 19.65930733 32.84069267 17.40234375 35.09765625 C15.01953125 35.29296875 15.01953125 35.29296875 12.27734375 35.22265625 C11.36726563 35.20460938 10.4571875 35.1865625 9.51953125 35.16796875 C8.82085937 35.14476562 8.1221875 35.1215625 7.40234375 35.09765625 C7.40234375 32.45765625 7.40234375 29.81765625 7.40234375 27.09765625 C5.42234375 27.09765625 3.44234375 27.09765625 1.40234375 27.09765625 C1.09296875 28.23203125 0.78359375 29.36640625 0.46484375 30.53515625 C-0.59765625 34.09765625 -0.59765625 34.09765625 -1.59765625 35.09765625 C-3.09503749 35.19556195 -4.59708517 35.22740489 -6.09765625 35.22265625 C-6.91234375 35.22523438 -7.72703125 35.2278125 -8.56640625 35.23046875 C-10.59765625 35.09765625 -10.59765625 35.09765625 -11.59765625 34.09765625 C-12.26666368 24.36963025 -12.30795387 15.87439786 -7.59765625 7.09765625 C-7.04078125 5.92203125 -6.48390625 4.74640625 -5.91015625 3.53515625 C-4.06604072 0.11037027 -4.06604072 0.11037027 0 0 Z " transform="translate(220.59765625,249.90234375)" style="fill: #6C1BED;"/><path d="M0 0 C0 8.25 0 16.5 0 25 C2.31 25 4.62 25 7 25 C6.99214478 23.91730835 6.99214478 23.91730835 6.98413086 22.81274414 C6.96342642 19.56267151 6.95036082 16.31261272 6.9375 13.0625 C6.92912109 11.92619141 6.92074219 10.78988281 6.91210938 9.61914062 C6.90727539 7.99975586 6.90727539 7.99975586 6.90234375 6.34765625 C6.89448853 4.84730835 6.89448853 4.84730835 6.88647461 3.31665039 C7 1 7 1 8 0 C9.68608966 -0.07205511 11.37500659 -0.08386068 13.0625 -0.0625 C13.98160156 -0.05347656 14.90070313 -0.04445312 15.84765625 -0.03515625 C16.55792969 -0.02355469 17.26820312 -0.01195312 18 0 C18.12383963 4.19911597 18.21444607 8.39725816 18.2746582 12.59765625 C18.29976347 14.02557901 18.33385587 15.45337375 18.37719727 16.88085938 C18.43803678 18.93651918 18.46624551 20.99047753 18.48828125 23.046875 C18.51446533 24.28276367 18.54064941 25.51865234 18.56762695 26.79199219 C18 30 18 30 15.58935547 32.35791016 C14.73486816 32.8997998 13.88038086 33.44168945 13 34 C12.36707031 34.40476562 11.73414062 34.80953125 11.08203125 35.2265625 C5.83184381 37.17691355 -1.0961999 36.9711226 -6.37109375 35.20703125 C-9.53661212 33.48935912 -10.84533142 32.46400575 -12 29 C-12.23541211 24.48285702 -12.18517474 19.96012111 -12.1875 15.4375 C-12.19974609 14.18001953 -12.21199219 12.92253906 -12.22460938 11.62695312 C-12.22750977 9.82967773 -12.22750977 9.82967773 -12.23046875 7.99609375 C-12.23457764 6.89450928 -12.23868652 5.7929248 -12.24291992 4.65795898 C-11.59757278 -2.40324141 -6.99243454 0 0 0 Z " transform="translate(107,250)" style="fill: #6318EB;"/><path d="M0 0 C1.5631897 0.00785522 1.5631897 0.00785522 3.15795898 0.01586914 C4.28266602 0.0190918 5.40737305 0.02231445 6.56616211 0.02563477 C7.75016602 0.03401367 8.93416992 0.04239258 10.15405273 0.05102539 C11.34192383 0.05553711 12.52979492 0.06004883 13.75366211 0.06469727 C16.69967499 0.07652864 19.64558954 0.09301252 22.59155273 0.11352539 C22.6455501 1.57145423 22.6843445 3.02995251 22.71655273 4.48852539 C22.73975586 5.30063477 22.76295898 6.11274414 22.78686523 6.94946289 C22.59155273 9.11352539 22.59155273 9.11352539 20.59155273 11.11352539 C20.61217773 12.22727539 20.63280273 13.34102539 20.65405273 14.48852539 C20.59155273 18.11352539 20.59155273 18.11352539 19.59155273 20.55102539 C16.40194286 23.04290811 13.55698358 22.37355364 9.59155273 22.11352539 C9.26155273 23.10352539 8.93155273 24.09352539 8.59155273 25.11352539 C13.21155273 25.11352539 17.83155273 25.11352539 22.59155273 25.11352539 C22.68920898 32.04711914 22.68920898 32.04711914 22.59155273 34.11352539 C21.59155273 35.11352539 21.59155273 35.11352539 19.18310547 35.22705078 C18.140979 35.22181396 17.09885254 35.21657715 16.02514648 35.21118164 C14.90043945 35.20795898 13.77573242 35.20473633 12.61694336 35.20141602 C11.43293945 35.19303711 10.24893555 35.1846582 9.02905273 35.17602539 C7.84118164 35.17151367 6.65331055 35.16700195 5.42944336 35.16235352 C2.48343047 35.15052214 -0.46248407 35.13403826 -3.40844727 35.11352539 C-3.43309917 30.28971737 -3.45128419 25.46594572 -3.46337891 20.64208984 C-3.468419 18.99983075 -3.47525105 17.35757616 -3.48388672 15.71533203 C-3.49596652 13.3597706 -3.50167865 11.0042683 -3.50610352 8.64868164 C-3.5112648 7.91013443 -3.51642609 7.17158722 -3.52174377 6.41065979 C-3.52193976 4.64454451 -3.47039445 2.87855393 -3.40844727 1.11352539 C-2.40844727 0.11352539 -2.40844727 0.11352539 0 0 Z " transform="translate(342.408447265625,249.886474609375)" style="fill: #6D17ED;"/><path d="M0 0 C0.79792969 -0.00128906 1.59585938 -0.00257813 2.41796875 -0.00390625 C3.66126953 0.00189453 3.66126953 0.00189453 4.9296875 0.0078125 C6.18458984 0.00201172 6.18458984 0.00201172 7.46484375 -0.00390625 C13.67803876 0.00616376 13.67803876 0.00616376 14.8046875 1.1328125 C14.9921875 4.5703125 14.9921875 4.5703125 14.8046875 8.1328125 C12.8046875 10.1328125 12.8046875 10.1328125 10.203125 10.328125 C9.20539063 10.30492187 8.20765625 10.28171875 7.1796875 10.2578125 C5.67535156 10.23074219 5.67535156 10.23074219 4.140625 10.203125 C3.36976562 10.17992187 2.59890625 10.15671875 1.8046875 10.1328125 C1.4746875 10.7928125 1.1446875 11.4528125 0.8046875 12.1328125 C1.81789063 12.20628906 1.81789063 12.20628906 2.8515625 12.28125 C3.74359375 12.35601562 4.635625 12.43078125 5.5546875 12.5078125 C6.43640625 12.57742188 7.318125 12.64703125 8.2265625 12.71875 C10.82855038 13.13664502 12.57901983 13.73926383 14.8046875 15.1328125 C16.19984098 17.92311946 16.1258931 20.33355621 16.2421875 23.4453125 C16.30277344 24.57582031 16.36335938 25.70632813 16.42578125 26.87109375 C15.74805715 30.43021087 14.75526882 32.08548729 11.80786133 34.23266602 C7.69922291 36.07892438 3.34243702 35.6396409 -1.0703125 35.4453125 C-2.04484375 35.42275391 -3.019375 35.40019531 -4.0234375 35.37695312 C-6.41472909 35.31834304 -8.80522429 35.22867165 -11.1953125 35.1328125 C-11.1953125 32.1628125 -11.1953125 29.1928125 -11.1953125 26.1328125 C-8.12998086 24.60014668 -4.92776978 25.03004779 -1.5703125 25.0703125 C-0.51070312 25.07708008 -0.51070312 25.07708008 0.5703125 25.08398438 C2.31514025 25.09577375 4.0599245 25.11370926 5.8046875 25.1328125 C5.8046875 24.4728125 5.8046875 23.8128125 5.8046875 23.1328125 C4.04125 23.1946875 4.04125 23.1946875 2.2421875 23.2578125 C-1.86032728 23.25052562 -5.33181316 22.60094225 -9.1953125 21.1328125 C-12.30346887 16.47057795 -11.80687431 11.59265946 -11.1953125 6.1328125 C-8.35758945 1.14233404 -5.5673544 0.00857836 0 0 Z " transform="translate(75.1953125,249.8671875)" style="fill: #6619EC;"/><path d="M0 0 C1.07507813 -0.00128906 2.15015625 -0.00257813 3.2578125 -0.00390625 C4.38960938 -0.00003906 5.52140625 0.00382813 6.6875 0.0078125 C7.81929688 0.00394531 8.95109375 0.00007812 10.1171875 -0.00390625 C11.19226563 -0.00261719 12.26734375 -0.00132812 13.375 0 C14.86580078 0.00169189 14.86580078 0.00169189 16.38671875 0.00341797 C18.6875 0.1328125 18.6875 0.1328125 19.6875 1.1328125 C20.62652465 4.67687327 20.57831029 7.57866124 19.6875 11.1328125 C16.6858065 15.96526861 12.62221018 20.05757695 8.6875 24.1328125 C9.86119141 24.22369141 9.86119141 24.22369141 11.05859375 24.31640625 C12.07050781 24.40019531 13.08242188 24.48398437 14.125 24.5703125 C15.63900391 24.69212891 15.63900391 24.69212891 17.18359375 24.81640625 C19.6875 25.1328125 19.6875 25.1328125 20.6875 26.1328125 C20.875 29.5703125 20.875 29.5703125 20.6875 33.1328125 C18.6875 35.1328125 18.6875 35.1328125 16.07373047 35.35986328 C14.99494629 35.34938965 13.91616211 35.33891602 12.8046875 35.328125 C11.63808594 35.32167969 10.47148437 35.31523437 9.26953125 35.30859375 C7.43455078 35.28345703 7.43455078 35.28345703 5.5625 35.2578125 C4.33144531 35.24878906 3.10039062 35.23976563 1.83203125 35.23046875 C-1.21633815 35.20683798 -4.26432382 35.17389304 -7.3125 35.1328125 C-7.84581923 29.83867638 -8.12416355 25.54352108 -4.90625 21.09375 C-3.8994634 19.87776099 -2.86758211 18.68214222 -1.8125 17.5078125 C-1.28785156 16.88519531 -0.76320313 16.26257813 -0.22265625 15.62109375 C1.05903218 14.10637106 2.37032126 12.61677686 3.6875 11.1328125 C0.3875 10.8028125 -2.9125 10.4728125 -6.3125 10.1328125 C-6.41015625 3.19921875 -6.41015625 3.19921875 -6.3125 1.1328125 C-4.59682208 -0.58286542 -2.33877265 0.00265425 0 0 Z " transform="translate(314.3125,249.8671875)" style="fill: #681AEC;"/><path d="M0 0 C0.9583374 0.00523682 1.9166748 0.01047363 2.90405273 0.01586914 C4.45576172 0.02070313 4.45576172 0.02070313 6.03881836 0.02563477 C7.12743164 0.03401367 8.21604492 0.04239258 9.33764648 0.05102539 C10.97636719 0.05779297 10.97636719 0.05779297 12.64819336 0.06469727 C15.35723144 0.07652713 18.06616248 0.09300996 20.77514648 0.11352539 C20.77514648 3.08352539 20.77514648 6.05352539 20.77514648 9.11352539 C19.12514648 9.44352539 17.47514648 9.77352539 15.77514648 10.11352539 C15.44514648 15.06352539 15.11514648 20.01352539 14.77514648 25.11352539 C16.75514648 25.11352539 18.73514648 25.11352539 20.77514648 25.11352539 C20.80203865 26.59259431 20.8214927 28.07180022 20.83764648 29.55102539 C20.84924805 30.37473633 20.86084961 31.19844727 20.87280273 32.04711914 C20.77514648 34.11352539 20.77514648 34.11352539 19.77514648 35.11352539 C18.06742291 35.20066371 16.35616 35.22052546 14.64624023 35.21118164 C13.09453125 35.20634766 13.09453125 35.20634766 11.51147461 35.20141602 C10.42286133 35.19303711 9.33424805 35.1846582 8.21264648 35.17602539 C6.57392578 35.16925781 6.57392578 35.16925781 4.90209961 35.16235352 C2.19306153 35.15052366 -0.51586951 35.13404082 -3.22485352 35.11352539 C-3.25174568 33.63445647 -3.27119973 32.15525056 -3.28735352 30.67602539 C-3.29895508 29.85231445 -3.31055664 29.02860352 -3.32250977 28.17993164 C-3.22485352 26.11352539 -3.22485352 26.11352539 -2.22485352 25.11352539 C-0.22526988 25.07271756 1.77559902 25.07098183 3.77514648 25.11352539 C3.44514648 24.45352539 3.11514648 23.79352539 2.77514648 23.11352539 C2.70421807 20.90623309 2.69099623 18.69685087 2.71264648 16.48852539 C2.72166992 15.30000977 2.73069336 14.11149414 2.73999023 12.88696289 C2.7515918 11.97172852 2.76319336 11.05649414 2.77514648 10.11352539 C0.79514648 10.11352539 -1.18485352 10.11352539 -3.22485352 10.11352539 C-3.25174568 8.63445647 -3.27119973 7.15525056 -3.28735352 5.67602539 C-3.29895508 4.85231445 -3.31055664 4.02860352 -3.32250977 3.17993164 C-3.1852797 0.27614339 -2.90334423 0.14814606 0 0 Z " transform="translate(282.224853515625,249.886474609375)" style="fill: #6C17EC;"/><path d="M0 0 C3.84447528 0.70612811 5.4893383 1.61093216 8.0625 4.5625 C8.69984462 8.52819988 8.68249672 10.59530512 6.5 14 C3.12032196 16.16646028 1.00266013 16.12538002 -2.9375 15.5625 C-5.375 13.9375 -5.375 13.9375 -6.9375 11.5625 C-7.58600195 7.75255105 -7.21821139 6.05914323 -5.3125 2.6875 C-2.9375 0.5625 -2.9375 0.5625 0 0 Z " transform="translate(310.9375,95.4375)" style="fill: #925BFF;"/><path d="M0 0 C2.9375 2.0625 2.9375 2.0625 5 5 C5.06584389 8.81894541 4.85572029 10.97971812 2.375 13.9375 C-0.96395831 15.43124451 -3.38824393 15.45967805 -7 15 C-9.85576764 12.69696158 -9.98181881 11.14544949 -10.4375 7.5 C-10 4 -10 4 -8.375 1.5625 C-5.24316508 -0.49791771 -3.68455227 -0.6767545 0 0 Z " transform="translate(222,91)" style="fill: #935CFF;"/><path d="M0 0 C2.47342266 3.71013399 2.38503486 5.61060262 2 10 C1 12.4375 1 12.4375 -1 14 C-4.56124386 14.65289471 -7.73582328 14.63208836 -11 13 C-12.6344142 9.7311716 -12.61493021 6.51994536 -12 3 C-8.91586241 -2.26873505 -5.31594313 -1.28611527 0 0 Z " transform="translate(360,178)" style="fill: #925BFF;"/><path d="M0 0 C1.875 1.0625 1.875 1.0625 3 3 C3.1875 6.6875 3.1875 6.6875 3 10 C-0.10391762 11.83935859 -2.39429145 12.55472439 -6 12 C-8.2855347 9.87208838 -8.92303658 8.52591672 -9.375 5.4375 C-9 3 -9 3 -7.875 1.1875 C-5.12844028 -0.55198782 -3.18153026 -0.39769128 0 0 Z " transform="translate(314,164)" style="fill: #9762FF;"/><path d="M0 0 C2.4375 0.75 2.4375 0.75 4.4375 2.75 C4.70741906 5.43839385 4.52487357 8.04141936 4.4375 10.75 C1.39449684 12.27150158 -1.216585 11.98899393 -4.5625 11.75 C-6.5625 8.75 -6.5625 8.75 -6.375 5.1875 C-5.4068221 1.09136272 -4.38870004 -0.42816586 0 0 Z " transform="translate(252.5625,125.25)" style="fill: #945DFF;"/><path d="M0 0 C2.6058889 -0.13494246 5.20482111 -0.23402299 7.8125 -0.3125 C8.55048828 -0.35439453 9.28847656 -0.39628906 10.04882812 -0.43945312 C12.20703125 -0.48828125 12.20703125 -0.48828125 16 0 C17.875 2.26171875 17.875 2.26171875 19 5 C19.38542969 5.66257813 19.77085937 6.32515625 20.16796875 7.0078125 C24.29046736 15.56871 23.34230407 24.73877333 23 34 C22.67 34 22.34 34 22 34 C21.99613281 32.52853516 21.99613281 32.52853516 21.9921875 31.02734375 C21.75732581 20.39089569 19.38844272 12.71059665 15 3 C10.05 2.67 5.1 2.34 0 2 C0 1.34 0 0.68 0 0 Z " transform="translate(218,248)" style="fill: #15FBFE;"/><path d="M0 0 C3.56206722 -0.14567407 7.12336551 -0.23419196 10.6875 -0.3125 C12.19860352 -0.3753418 12.19860352 -0.3753418 13.74023438 -0.43945312 C21.20298223 -0.56260078 21.20298223 -0.56260078 25.1875 2.25 C27.83503366 6.26694762 27.39768263 8.30734502 27 13 C26.01 13.495 26.01 13.495 25 14 C24.86979167 12.01432292 24.73958333 10.02864583 24.609375 8.04296875 C23.7673823 5.22013426 22.47496138 4.538027 20 3 C17.69253535 2.50348204 17.69253535 2.50348204 15.234375 2.48828125 C14.34492188 2.45283203 13.45546875 2.41738281 12.5390625 2.38085938 C11.61867188 2.35830078 10.69828125 2.33574219 9.75 2.3125 C8.81414062 2.27833984 7.87828125 2.24417969 6.9140625 2.20898438 C4.60949467 2.12667838 2.30529881 2.0574737 0 2 C0 1.34 0 0.68 0 0 Z " transform="translate(372,248)" style="fill: #14FFFE;"/><path d="M0 0 C1.64574566 -0.02688151 3.29161413 -0.04634123 4.9375 -0.0625 C5.85402344 -0.07410156 6.77054687 -0.08570313 7.71484375 -0.09765625 C10 0 10 0 11 1 C11.25380234 5.47331958 11.18522721 9.9578346 11.1875 14.4375 C11.19974609 15.70400391 11.21199219 16.97050781 11.22460938 18.27539062 C11.22750977 20.08620117 11.22750977 20.08620117 11.23046875 21.93359375 C11.23457764 23.04790771 11.23868652 24.16222168 11.24291992 25.31030273 C11 28 11 28 9 30 C9 20.76 9 11.52 9 2 C6.03 2 3.06 2 0 2 C0 1.34 0 0.68 0 0 Z " transform="translate(116,248)" style="fill: #34E2FC;"/><path d="M0 0 C0.33 0 0.66 0 1 0 C1.00410889 0.76143311 1.00821777 1.52286621 1.01245117 2.30737305 C1.0454114 5.76819666 1.11606054 9.22726571 1.1875 12.6875 C1.19330078 13.88568359 1.19910156 15.08386719 1.20507812 16.31835938 C1.33169823 23.15074988 1.33169823 23.15074988 4.03125 29.28125 C7.8962693 31.51889275 10.91384604 31.77712209 15.3125 31.8125 C16.05306641 31.83763672 16.79363281 31.86277344 17.55664062 31.88867188 C19.37052969 31.94718443 21.18531903 31.97654349 23 32 C20.26612121 34.73387879 18.62809808 34.33109208 14.8125 34.375 C8.95044221 34.29060714 5.5869624 33.64872009 1 30 C-0.09911549 26.70265354 -0.1139456 24.27041255 -0.09765625 20.80078125 C-0.09443359 19.59228516 -0.09121094 18.38378906 -0.08789062 17.13867188 C-0.07951172 15.87603516 -0.07113281 14.61339844 -0.0625 13.3125 C-0.05573242 11.40114258 -0.05573242 11.40114258 -0.04882812 9.45117188 C-0.03702873 6.30073436 -0.02056597 3.15039051 0 0 Z " transform="translate(95,252)" style="fill: #EB21FC;"/><path d="M0 0 C3.41659491 -0.05816623 6.83306205 -0.09365195 10.25 -0.125 C11.21808594 -0.14175781 12.18617188 -0.15851563 13.18359375 -0.17578125 C14.11816406 -0.18222656 15.05273438 -0.18867188 16.015625 -0.1953125 C16.87446289 -0.20578613 17.73330078 -0.21625977 18.61816406 -0.22705078 C21.21730884 0.02071517 22.80451408 0.60470931 25 2 C26.26237731 4.52475462 26.09856404 6.31200466 26.0625 9.125 C26.05347656 10.03507812 26.04445313 10.94515625 26.03515625 11.8828125 C26.02355469 12.58148438 26.01195312 13.28015625 26 14 C25.67 14 25.34 14 25 14 C24.86979167 12.01432292 24.73958333 10.02864583 24.609375 8.04296875 C23.7673823 5.22013426 22.47496138 4.538027 20 3 C17.69253535 2.50348204 17.69253535 2.50348204 15.234375 2.48828125 C14.34492188 2.45283203 13.45546875 2.41738281 12.5390625 2.38085938 C11.61867188 2.35830078 10.69828125 2.33574219 9.75 2.3125 C8.81414062 2.27833984 7.87828125 2.24417969 6.9140625 2.20898438 C4.60949467 2.12667838 2.30529881 2.0574737 0 2 C0 1.34 0 0.68 0 0 Z " transform="translate(407,248)" style="fill: #10FFFF;"/><path d="M0 0 C3.41659491 -0.05816623 6.83306205 -0.09365195 10.25 -0.125 C11.21808594 -0.14175781 12.18617188 -0.15851563 13.18359375 -0.17578125 C14.11816406 -0.18222656 15.05273438 -0.18867188 16.015625 -0.1953125 C16.87446289 -0.20578613 17.73330078 -0.21625977 18.61816406 -0.22705078 C21.21730884 0.02071517 22.80451408 0.60470931 25 2 C26.26237731 4.52475462 26.09856404 6.31200466 26.0625 9.125 C26.05347656 10.03507812 26.04445313 10.94515625 26.03515625 11.8828125 C26.02355469 12.58148438 26.01195312 13.28015625 26 14 C25.67 14 25.34 14 25 14 C24.86979167 12.01432292 24.73958333 10.02864583 24.609375 8.04296875 C23.7673823 5.22013426 22.47496138 4.538027 20 3 C17.69253535 2.50348204 17.69253535 2.50348204 15.234375 2.48828125 C14.34492188 2.45283203 13.45546875 2.41738281 12.5390625 2.38085938 C11.61867188 2.35830078 10.69828125 2.33574219 9.75 2.3125 C8.81414062 2.27833984 7.87828125 2.24417969 6.9140625 2.20898438 C4.60949467 2.12667838 2.30529881 2.0574737 0 2 C0 1.34 0 0.68 0 0 Z " transform="translate(247,248)" style="fill: #10FFFF;"/><path d="M0 0 C8.25 0 16.5 0 25 0 C25 3.63 25 7.26 25 11 C24.67 11 24.34 11 24 11 C23.67 8.36 23.34 5.72 23 3 C11.615 2.505 11.615 2.505 0 2 C0 1.34 0 0.68 0 0 Z " transform="translate(310,248)" style="fill: #0FFDFE;"/><path d="M0 0 C2.2744243 0.3965971 4.54453252 0.81800619 6.8125 1.25 C8.07707031 1.48203125 9.34164062 1.7140625 10.64453125 1.953125 C14 3 14 3 15.9296875 4.7890625 C17.19973324 7.41258764 17.36888349 9.21908181 17.3125 12.125 C17.30863281 12.99382812 17.30476563 13.86265625 17.30078125 14.7578125 C17 17 17 17 15 19 C14.67 14.71 14.34 10.42 14 6 C9.38 5.01 4.76 4.02 0 3 C0 2.01 0 1.02 0 0 Z " transform="translate(76,259)" style="fill: #1EE5FC;"/><path d="M0 0 C3.3 0 6.6 0 10 0 C10.33 7.92 10.66 15.84 11 24 C12.65 24.33 14.3 24.66 16 25 C16 25.66 16 26.32 16 27 C13.69 27 11.38 27 9 27 C9 18.75 9 10.5 9 2 C6.03 2 3.06 2 0 2 C0 1.34 0 0.68 0 0 Z " transform="translate(98,248)" style="fill: #10F7FE;"/><path d="M0 0 C3.63 0 7.26 0 11 0 C11 11.22 11 22.44 11 34 C10.67 34 10.34 34 10 34 C9.67 23.77 9.34 13.54 9 3 C6.03 2.67 3.06 2.34 0 2 C0 1.34 0 0.68 0 0 Z " transform="translate(195,248)" style="fill: #0AFDFE;"/><path d="M0 0 C3.63 0 7.26 0 11 0 C11 11.22 11 22.44 11 34 C10.67 34 10.34 34 10 34 C9.67 23.77 9.34 13.54 9 3 C6.03 2.67 3.06 2.34 0 2 C0 1.34 0 0.68 0 0 Z " transform="translate(155,248)" style="fill: #0AFDFE;"/><path d="M0 0 C0.78028564 0.01571045 1.56057129 0.0314209 2.36450195 0.04760742 C3.21206055 0.05727539 4.05961914 0.06694336 4.93286133 0.0769043 C5.81393555 0.10204102 6.69500977 0.12717773 7.6027832 0.15307617 C8.49545898 0.16661133 9.38813477 0.18014648 10.30786133 0.1940918 C12.51059303 0.22942974 14.7130144 0.28323648 16.9152832 0.34057617 C16.9152832 3.31057617 16.9152832 6.28057617 16.9152832 9.34057617 C16.5852832 9.34057617 16.2552832 9.34057617 15.9152832 9.34057617 C15.5852832 7.36057617 15.2552832 5.38057617 14.9152832 3.34057617 C8.3152832 3.34057617 1.7152832 3.34057617 -5.0847168 3.34057617 C-2.0847168 0.34057617 -2.0847168 0.34057617 0 0 Z " transform="translate(74.084716796875,247.659423828125)" style="fill: #13FCFE;"/><path d="M0 0 C3.51266272 -0.63609586 6.51433631 -0.86003313 10 0 C12.97765785 2.98289099 15.00621676 6.3029185 17 10 C16.67 10.66 16.34 11.32 16 12 C15.34 12 14.68 12 14 12 C13.74347656 11.36191406 13.48695313 10.72382813 13.22265625 10.06640625 C12.00079225 7.4293193 10.85505853 5.24470553 9 3 C5.96109971 1.93282766 3.19941335 1.82574001 0 2 C0 1.34 0 0.68 0 0 Z " transform="translate(173,248)" style="fill: #16ECFD;"/><path d="M0 0 C3.51266272 -0.63609586 6.51433631 -0.86003313 10 0 C12.97765785 2.98289099 15.00621676 6.3029185 17 10 C16.67 10.66 16.34 11.32 16 12 C15.34 12 14.68 12 14 12 C13.74347656 11.36191406 13.48695313 10.72382813 13.22265625 10.06640625 C12.00079225 7.4293193 10.85505853 5.24470553 9 3 C5.96109971 1.93282766 3.19941335 1.82574001 0 2 C0 1.34 0 0.68 0 0 Z " transform="translate(133,248)" style="fill: #16ECFD;"/><path d="M0 0 C1.9375 0.25 1.9375 0.25 4 1 C6.42130331 4.63195496 6.21022785 6.38349348 6.125 10.6875 C6.10695313 11.86699219 6.08890625 13.04648437 6.0703125 14.26171875 C6.03550781 15.61716797 6.03550781 15.61716797 6 17 C5.34 17.33 4.68 17.66 4 18 C3.90912109 16.62714844 3.90912109 16.62714844 3.81640625 15.2265625 C3.73261719 14.03804688 3.64882813 12.84953125 3.5625 11.625 C3.48128906 10.44164062 3.40007812 9.25828125 3.31640625 8.0390625 C3.18915064 5.08481099 3.18915064 5.08481099 2 3 C1.01 2.34 0.02 1.68 -1 1 C-0.67 0.67 -0.34 0.34 0 0 Z " transform="translate(396,264)" style="fill: #2ADBFB;"/><path d="M0 0 C0.66 0 1.32 0 2 0 C2 0.66 2 1.32 2 2 C5.63 2 9.26 2 13 2 C13 4.31 13 6.62 13 9 C12.01 9.495 12.01 9.495 11 10 C11 8.02 11 6.04 11 4 C7.37 4 3.74 4 0 4 C0 2.68 0 1.36 0 0 Z " transform="translate(350,259)" style="fill: #23CFFB;"/><path d="M0 0 C0.33 0 0.66 0 1 0 C1.02578125 0.67546875 1.0515625 1.3509375 1.078125 2.046875 C1.40063486 7.51160611 1.40063486 7.51160611 3.4375 12.5 C7.36220399 14.7973877 11.53844037 15.35290356 16 16 C16 16.33 16 16.66 16 17 C10.92720445 17.20705288 6.77617678 16.77935998 2 15 C-0.35119399 11.47320901 -0.21443452 9.97120515 -0.125 5.8125 C-0.10695312 4.72582031 -0.08890625 3.63914062 -0.0703125 2.51953125 C-0.04710937 1.68808594 -0.02390625 0.85664063 0 0 Z " transform="translate(64,256)" style="fill: #F11BFD;"/><path d="M0 0 C4.29 0 8.58 0 13 0 C13 2.97 13 5.94 13 9 C12.67 9 12.34 9 12 9 C11.67 7.02 11.34 5.04 11 3 C7.04 2.67 3.08 2.34 -1 2 C-0.67 1.34 -0.34 0.68 0 0 Z " transform="translate(323,273)" style="fill: #0FFBFE;"/><path d="M0 0 C1.9375 0.25 1.9375 0.25 4 1 C6.67927341 5.01891012 6.15601248 7.24161923 6 12 C5.01 12.495 5.01 12.495 4 13 C3.9175 11.7625 3.835 10.525 3.75 9.25 C3.36524541 6.01117036 3.09975997 5.12092117 0.9375 2.5 C0.298125 2.005 -0.34125 1.51 -1 1 C-0.67 0.67 -0.34 0.34 0 0 Z " transform="translate(393,249)" style="fill: #2EE4FC;"/><path d="M0 0 C0.99 0.33 1.98 0.66 3 1 C3 2.32 3 3.64 3 5 C3.66 5 4.32 5 5 5 C5 5.66 5 6.32 5 7 C3.02 7 1.04 7 -1 7 C-0.67 4.69 -0.34 2.38 0 0 Z " transform="translate(223,260)" style="fill: #76E9FE;"/><path d="M0 0 C3.69230769 0.69230769 3.69230769 0.69230769 5 2 C5.07319621 4.69654854 5.09242537 7.36691458 5.0625 10.0625 C5.05798828 10.82111328 5.05347656 11.57972656 5.04882812 12.36132812 C5.0370068 14.24091871 5.01907078 16.12046899 5 18 C4.67 18 4.34 18 4 18 C3.90912109 16.62714844 3.90912109 16.62714844 3.81640625 15.2265625 C3.73261719 14.03804688 3.64882813 12.84953125 3.5625 11.625 C3.48128906 10.44164062 3.40007812 9.25828125 3.31640625 8.0390625 C3.18915064 5.08481099 3.18915064 5.08481099 2 3 C1.01 2.34 0.02 1.68 -1 1 C-0.67 0.67 -0.34 0.34 0 0 Z " transform="translate(431,264)" style="fill: #20CAFA;"/><path d="M0 0 C3.69230769 0.69230769 3.69230769 0.69230769 5 2 C5.07319621 4.69654854 5.09242537 7.36691458 5.0625 10.0625 C5.05798828 10.82111328 5.05347656 11.57972656 5.04882812 12.36132812 C5.0370068 14.24091871 5.01907078 16.12046899 5 18 C4.67 18 4.34 18 4 18 C3.90912109 16.62714844 3.90912109 16.62714844 3.81640625 15.2265625 C3.73261719 14.03804688 3.64882813 12.84953125 3.5625 11.625 C3.48128906 10.44164062 3.40007812 9.25828125 3.31640625 8.0390625 C3.18915064 5.08481099 3.18915064 5.08481099 2 3 C1.01 2.34 0.02 1.68 -1 1 C-0.67 0.67 -0.34 0.34 0 0 Z " transform="translate(271,264)" style="fill: #20CAFA;"/><path d="M0 0 C1.32 0.33 2.64 0.66 4 1 C4 1.66 4 2.32 4 3 C4.66 3 5.32 3 6 3 C5.67 3.99 5.34 4.98 5 6 C3.35 6 1.7 6 0 6 C0 4.02 0 2.04 0 0 Z " transform="translate(381,259)" style="fill: #55CFFB;"/><path d="M0 0 C1.32 0.33 2.64 0.66 4 1 C4 1.66 4 2.32 4 3 C4.66 3 5.32 3 6 3 C5.67 3.99 5.34 4.98 5 6 C3.35 6 1.7 6 0 6 C0 4.02 0 2.04 0 0 Z " transform="translate(416,259)" style="fill: #5DCEFB;"/><path d="M0 0 C1.32 0.33 2.64 0.66 4 1 C4 1.66 4 2.32 4 3 C4.66 3 5.32 3 6 3 C5.67 3.99 5.34 4.98 5 6 C3.35 6 1.7 6 0 6 C0 4.02 0 2.04 0 0 Z " transform="translate(256,259)" style="fill: #5DCEFB;"/><path d="M0 0 C2 0.3125 2 0.3125 4 1 C5.26237731 3.52475462 5.09856404 5.31200466 5.0625 8.125 C5.05347656 9.03507812 5.04445313 9.94515625 5.03515625 10.8828125 C5.02355469 11.58148438 5.01195312 12.28015625 5 13 C4.67 13 4.34 13 4 13 C3.9175 11.7625 3.835 10.525 3.75 9.25 C3.36524541 6.01117036 3.09975997 5.12092117 0.9375 2.5 C0.298125 2.005 -0.34125 1.51 -1 1 C-0.67 0.67 -0.34 0.34 0 0 Z " transform="translate(428,249)" style="fill: #19D9FB;"/><path d="M0 0 C2 0.3125 2 0.3125 4 1 C5.26237731 3.52475462 5.09856404 5.31200466 5.0625 8.125 C5.05347656 9.03507812 5.04445313 9.94515625 5.03515625 10.8828125 C5.02355469 11.58148438 5.01195312 12.28015625 5 13 C4.67 13 4.34 13 4 13 C3.9175 11.7625 3.835 10.525 3.75 9.25 C3.36524541 6.01117036 3.09975997 5.12092117 0.9375 2.5 C0.298125 2.005 -0.34125 1.51 -1 1 C-0.67 0.67 -0.34 0.34 0 0 Z " transform="translate(268,249)" style="fill: #19D9FB;"/><path d="M0 0 C3.3 0 6.6 0 10 0 C10.33 0.99 10.66 1.98 11 3 C7.37 2.67 3.74 2.34 0 2 C0 1.34 0 0.68 0 0 Z " transform="translate(173,248)" style="fill: #0EFDFE;"/><path d="M0 0 C3.3 0 6.6 0 10 0 C10.33 0.99 10.66 1.98 11 3 C7.37 2.67 3.74 2.34 0 2 C0 1.34 0 0.68 0 0 Z " transform="translate(133,248)" style="fill: #0EFDFE;"/><path d="M0 0 C0.66 0 1.32 0 2 0 C1.67 2.64 1.34 5.28 1 8 C0.67 6.68 0.34 5.36 0 4 C-0.66 4 -1.32 4 -2 4 C-2 4.66 -2 5.32 -2 6 C-2.66 5.67 -3.32 5.34 -4 5 C-2.71937515 3.2925002 -1.38232443 1.62626404 0 0 Z " transform="translate(246,140)" style="fill: #AF85FF;"/><path d="M0 0 C0.99 0.33 1.98 0.66 3 1 C2.01 2.98 1.02 4.96 0 7 C-1.65 7 -3.3 7 -5 7 C-4.67 6.34 -4.34 5.68 -4 5 C-3.34 5 -2.68 5 -2 5 C-1.34 3.35 -0.68 1.7 0 0 Z " transform="translate(302,115)" style="fill: #B188FF;"/><path d="M0 0 C0.66 0.33 1.32 0.66 2 1 C2 2.65 2 4.3 2 6 C1.34 5.67 0.68 5.34 0 5 C-0.99 5.99 -1.98 6.98 -3 8 C-1.125 1.125 -1.125 1.125 0 0 Z " transform="translate(214,111)" style="fill: #A779FF;"/></svg>